<mxfile host="Electron" modified="2023-12-14T17:40:13.761Z" agent="Mozilla/5.0 (Windows NT 10.0; Win64; x64) AppleWebKit/537.36 (KHTML, like Gecko) draw.io/22.1.2 Chrome/114.0.5735.289 Electron/25.9.4 Safari/537.36" etag="rxQG1hPD9mLPIIjodg0v" version="22.1.2" type="device">
  <diagram name="Sayfa -1" id="6i_L4pM5sW1-IrOiOULz">
    <mxGraphModel dx="714" dy="423" grid="1" gridSize="10" guides="1" tooltips="1" connect="1" arrows="1" fold="1" page="1" pageScale="1" pageWidth="827" pageHeight="1169" math="0" shadow="0">
      <root>
        <mxCell id="0" />
        <mxCell id="1" parent="0" />
        <mxCell id="ASvh5vL4p7Dd-Dkji9hU-3" style="edgeStyle=orthogonalEdgeStyle;rounded=0;orthogonalLoop=1;jettySize=auto;html=1;exitX=0.5;exitY=1;exitDx=0;exitDy=0;entryX=0.5;entryY=0;entryDx=0;entryDy=0;" parent="1" source="ASvh5vL4p7Dd-Dkji9hU-1" target="ASvh5vL4p7Dd-Dkji9hU-2" edge="1">
          <mxGeometry relative="1" as="geometry" />
        </mxCell>
        <mxCell id="ASvh5vL4p7Dd-Dkji9hU-1" value="etherium verilerini x-sn aralılar ile&amp;nbsp; al" style="rounded=1;whiteSpace=wrap;html=1;" parent="1" vertex="1">
          <mxGeometry x="80" y="50" width="120" height="60" as="geometry" />
        </mxCell>
        <mxCell id="0vegEQC9UdhAuBJXQ-em-1" style="edgeStyle=orthogonalEdgeStyle;rounded=0;orthogonalLoop=1;jettySize=auto;html=1;exitX=0.5;exitY=1;exitDx=0;exitDy=0;entryX=0.5;entryY=0;entryDx=0;entryDy=0;" edge="1" parent="1" source="ASvh5vL4p7Dd-Dkji9hU-2" target="ASvh5vL4p7Dd-Dkji9hU-4">
          <mxGeometry relative="1" as="geometry" />
        </mxCell>
        <mxCell id="ASvh5vL4p7Dd-Dkji9hU-2" value="csv olarak kaydet" style="rounded=1;whiteSpace=wrap;html=1;" parent="1" vertex="1">
          <mxGeometry x="80" y="130" width="120" height="60" as="geometry" />
        </mxCell>
        <mxCell id="ASvh5vL4p7Dd-Dkji9hU-4" value="atılan değerleri oku ve diziye kaydet" style="rounded=1;whiteSpace=wrap;html=1;" parent="1" vertex="1">
          <mxGeometry x="80" y="210" width="120" height="60" as="geometry" />
        </mxCell>
        <mxCell id="ASvh5vL4p7Dd-Dkji9hU-5" value="" style="rounded=1;whiteSpace=wrap;html=1;" parent="1" vertex="1">
          <mxGeometry x="150" y="430" width="120" height="60" as="geometry" />
        </mxCell>
      </root>
    </mxGraphModel>
  </diagram>
</mxfile>
